<svg width="765" height="265" xmlns="http://www.w3.org/2000/svg">

 <g>
  <title>background</title>
  <rect fill="none" id="canvas_background" height="267" width="767" y="-1" x="-1"/>
 </g>
 <g>
  <title>Layer 1</title>
  <g id="svg_2">
   <circle id="svg_3" transform="matrix(0.7273762199593267,0,0,0.7273762199593267,0,37.60670240719831) " fill="#2b3139" cy="130.459721" cx="176.977706" r="166.666672"/>
   <path id="svg_4" fill="#06bebd" d="m162.206271,83.10599l0,0l-33.985861,40.139878q0.832868,-0.16195 1.503799,-0.16195q0.670925,0 1.341849,0l0,0q14.644695,0 23.644353,8.166784q8.999659,8.166791 8.999659,22.325642l0,0q0,9.832534 -5.159185,17.328393q-5.159192,7.495867 -14.158851,11.822177q-8.999659,4.326317 -20.659892,4.326317l0,0q-16.495525,0 -29.983444,-8.837716l0,0q0.832875,-3.817336 3.169542,-6.662984l0,0q13.487926,7.010016 25.657134,7.010016l0,0q14.806645,0 23.227916,-6.755528q8.421278,-6.732391 8.421278,-18.230674l0,0q0,-10.827359 -6.917479,-16.819419q-6.917472,-6.015198 -18.415755,-6.015198l0,0q-2.498625,0 -5.483086,0.347031q-3.007599,0.323893 -5.182323,0.994818l0,0q-0.832875,-0.994818 -1.735156,-2.406081q-0.925412,-1.434393 -1.411255,-2.753104l0,0l34.633655,-41.319785l-41.643678,0l-4.164367,14.829775q-1.503799,1.156768 -3.331492,1.156768l0,0q-1.66575,0 -2.660568,-0.647787l0,0l0.323893,-18.670249q1.66575,-2.498625 4.002424,-4.326317l0,0l56.797347,0q2.012774,2.174724 3.169542,5.159192z"/>
   <path id="svg_5" fill="#06bebd" d="m376.125915,87.517148l0,0l-32.543627,38.43648q0.797532,-0.155077 1.439987,-0.155077q0.642455,0 1.28491,0l0,0q14.023224,0 22.640967,7.820218q8.61775,7.820218 8.61775,21.37822l0,0q0,9.415274 -4.940252,16.593037q-4.940252,7.177763 -13.558002,11.320483q-8.617743,4.14272 -19.783149,4.14272l0,0q-15.795513,0 -28.71106,-8.462673l0,0q0.797532,-3.655342 3.035043,-6.380231l0,0q12.915547,6.712541 24.568332,6.712541l0,0q14.178301,0 22.242205,-6.468848q8.063911,-6.446699 8.063911,-17.457029l0,0q0,-10.367882 -6.623924,-16.105666q-6.623924,-5.759932 -17.634262,-5.759932l0,0q-2.392588,0 -5.250398,0.332302q-2.879966,0.310153 -4.962408,0.952608l0,0q-0.797524,-0.952608 -1.661516,-2.303971q-0.886141,-1.373526 -1.35137,-2.636281l0,0l33.163926,-39.566313l-39.876459,0l-3.987651,14.20045q-1.439979,1.107685 -3.190112,1.107685l0,0q-1.595063,0 -2.547664,-0.620299l0,0l0.310146,-17.877947q1.595063,-2.392588 3.832574,-4.142728l0,0l54.387062,0q1.927365,2.082442 3.035043,4.940252zm81.347982,0l0,0l-32.543619,38.43648q0.797524,-0.155077 1.439979,-0.155077q0.642455,0 1.28491,0l0,0q14.023224,0 22.640967,7.820218q8.61775,7.820218 8.61775,21.37822l0,0q0,9.415274 -4.940252,16.593037q-4.940252,7.177763 -13.557995,11.320483q-8.61775,4.14272 -19.783157,4.14272l0,0q-15.795513,0 -28.711052,-8.462673l0,0q0.797524,-3.655342 3.035043,-6.380231l0,0q12.915539,6.712541 24.568332,6.712541l0,0q14.178294,0 22.242205,-6.468848q8.063904,-6.446699 8.063904,-17.457029l0,0q0,-10.367882 -6.623924,-16.105666q-6.623924,-5.759932 -17.634254,-5.759932l0,0q-2.392588,0 -5.250405,0.332302q-2.879966,0.310153 -4.962401,0.952608l0,0q-0.797532,-0.952608 -1.661524,-2.303971q-0.886141,-1.373526 -1.351363,-2.636281l0,0l33.163919,-39.566313l-39.876459,0l-3.987644,14.20045q-1.439987,1.107685 -3.190119,1.107685l0,0q-1.595056,0 -2.547664,-0.620299l0,0l0.310153,-17.877947q1.595056,-2.392588 3.832567,-4.142728l0,0l54.387069,0q1.927358,2.082442 3.035035,4.940252zm28.71106,93.155851l0,0q19.938226,-8.285441 32.233474,-21.688366q12.273084,-13.402925 15.950582,-30.306116l0,0q-3.677498,8.927903 -11.165407,14.111841q-7.510072,5.183938 -17.235492,5.183938l0,0q-8.927903,0 -16.194275,-4.475022q-7.244223,-4.452874 -11.47556,-12.118015q-4.231337,-7.642986 -4.231337,-17.058267l0,0q0,-9.72542 4.297797,-17.235492q4.319946,-7.487909 11.807862,-11.807862q7.510065,-4.297797 17.080416,-4.297797l0,0q10.367882,0 18.099484,4.940252q7.731602,4.940252 11.874322,13.956764q4.142728,9.016512 4.142728,21.13452l0,0q0,14.355526 -6.380239,27.115996q-6.380231,12.76047 -17.944408,22.818199q-11.564176,10.035573 -27.514758,16.105659l0,0q-2.547664,-1.905209 -3.345189,-6.380231zm21.223136,-40.186612l0,0q7.177763,0 12.671854,-3.367345q5.516247,-3.345196 8.61775,-9.238049q3.101503,-5.915009 3.101503,-13.402925l0,0q0,-11.47556 -6.934078,-18.741939q-6.93407,-7.266372 -17.612106,-7.266372l0,0q-10.700184,0 -17.324109,7.177763q-6.601768,7.177763 -6.601768,18.830548l0,0q0,11.47556 6.690385,18.741939q6.690385,7.266379 17.390569,7.266379zm59.482391,39.078935l0,0q0,3.345189 -2.148895,5.405475q-2.148902,2.082434 -5.8264,2.082434l0,0q-3.655342,0 -5.804237,-2.082434q-2.171051,-2.060286 -2.171051,-5.405475l0,0q0,-3.367352 2.171051,-5.42763q2.148895,-2.082442 5.804237,-2.082442l0,0q3.677498,0 5.8264,2.082442q2.148895,2.060279 2.148895,5.42763zm49.291741,4.607943l-0.310153,1.28491l-33.983606,0q-0.465223,-1.28491 -0.465223,-2.237511l0,0q0,-1.262754 0.952601,-3.035043l0,0l12.428168,-1.262754l0,-65.729709l-12.915547,0q-0.465223,-1.107678 -0.465223,-2.215355l0,0q0,-1.439987 0.952601,-3.035043l0,0l16.593037,-3.035043q2.702741,1.439987 4.452874,3.500265l0,0l0,70.182575l10.855261,0q2.547664,0 2.547664,2.237518l0,0q0,0.952601 -0.642455,3.345189l0,0zm-12.273092,-99.513926l0,0q0,3.012887 -1.927358,4.851636q-1.905209,1.838749 -5.250405,1.838749l0,0q-3.345189,0 -5.272554,-1.838749q-1.905209,-1.838749 -1.905209,-4.851636l0,0q0,-3.035043 1.905209,-4.873792q1.927365,-1.838749 5.272554,-1.838749l0,0q3.345196,0 5.250405,1.838749q1.927358,1.838749 1.927358,4.873792zm152.970543,99.513926l-0.332302,1.28491l-30.771338,0q-0.487378,-1.28491 -0.487378,-2.237511l0,0q0,-1.262754 0.952601,-3.035043l0,0l10.855261,-1.262754l0,-45.304097q0,-22.48589 -15.950582,-22.48589l0,0q-6.867617,0 -12.295248,4.054104q-5.405475,4.07626 -8.529126,11.342639q-3.101503,7.244223 -3.101503,16.504428l0,0l0,35.556506l9.238042,0q2.56982,0 2.56982,2.237518l0,0q0,0.952601 -0.642455,3.345189l0,0l-0.332302,1.28491l-30.771338,0q-0.487378,-1.28491 -0.487378,-2.237511l0,0q0,-1.262754 0.952601,-3.035043l0,0l10.855261,-1.262754l0,-45.304097q0,-22.48589 -15.950582,-22.48589l0,0q-6.867617,0 -12.273092,4.054104q-5.42763,4.07626 -8.551289,11.342639q-3.101496,7.244223 -3.101496,16.504428l0,0l0,35.556506l9.260198,0q2.547664,0 2.547664,2.237518l0,0q0,0.952601 -0.642455,3.345189l0,0l-0.310153,1.28491l-30.793487,0q-0.487378,-1.28491 -0.487378,-2.237511l0,0q0,-1.262754 0.974757,-3.035043l0,0l10.833105,-1.262754l0,-65.729709l-12.118015,0q-0.487378,-1.107678 -0.487378,-2.215355l0,0q0,-1.439987 0.974757,-3.035043l0,0l15.773357,-3.035043q2.72489,1.439987 4.475029,3.500265l0,0l-0.952608,13.402925q8.440517,-17.700722 25.986163,-17.700722l0,0q18.520402,0 21.223136,18.830556l0,0q8.772826,-18.830556 27.115996,-18.830556l0,0q11.47556,0 17.545646,7.576533q6.070085,7.576525 6.070085,21.932051l0,0l0,44.971788l9.238042,0q2.547664,0 2.547664,2.237518l0,0q0,0.952601 -0.620299,3.345189l0,0z"/>
  </g>
 </g>
</svg>